# xmcd
#
# Track frame offsets:
#	150
#	20722
#	46370
#	67060
#
# Disc length: 1168 seconds
#
# Revision: 1
# Processed by: cddbd v1.5.2PL0 Copyright (c) Steve Scherf et al.
# Submitted via: EasyCDDAExtractor 11.0.2.1
#
DISCID=35048e04
DTITLE=Uncle Sam - I Don't Ever Want To See You Again (Single)
DYEAR=1997
DGENRE=R&B
TTITLE0=I Don't Ever Want To See You Again (Radio Edit)
TTITLE1=I Don't Ever Want To See You Again (LP Version)
TTITLE2=I Don't Ever Want To See You Again (Instrumental)
TTITLE3=I Don't Ever Want To See You Again (A Cappella)
EXTD=CD Single
EXTT0=
EXTT1=
EXTT2=
EXTT3=
PLAYORDER=
